<svg id="Layer_1" data-name="Layer 1" xmlns="http://www.w3.org/2000/svg" viewBox="0 0 1181.53 326.89"><path d="M1027,614.39c-3.08-.63-3.94-3.07-6.28-4.13-1.56,6.88-.34,13.17,2.37,19.32,1.63,3.69,3,7.44,1.17,11.51-.6,1.31-.35,3.44-1.94,3.74-1.77.35-2.2-1.78-2.87-3-5-8.85-10-17.66-15.79-26.06-.47-.68-.94-1.37-1.4-2.07-5.35-8.13-5.34-8.13-11.69-.64-.72.84-1.28,2.22-2.68,1.82s-1.06-1.9-1.29-3c-2.95-13.49-5.95-27-8.75-40.49a53.17,53.17,0,0,0-3.45-10.92,92.52,92.52,0,0,1-6.9-24.38c-.83-5.62-4.72-10.67-3.64-16.81.31-1.73-.64-4,1.36-5,1.69-.81,3,.95,4.39,1.8,3.07,1.91,6,4,10,5.34-3.29-9.52-6.17-19.21-10-28.5-1.88-4.54-7.59-5.71-11.21-8.84-4.13-3.57-8.53-3.94-13.37-1.89-3.77,1.61-5.54.18-6.92-3.6a135.89,135.89,0,0,1-8.4-40.37c-.17-3.76-1-7.21-4.47-9.49-9.78-6.45-11.31-17.6-15.31-27.3-2.48-6-4.58-12.15-6.85-18.24-.45-1.21-.5-2.91-2-3.23-1.64-.35-2.06,1.43-2.79,2.44-3.74,5.1-7.84,10-11,15.45-7.75,13.25-19.24,22.78-30.82,32.3-7.08,5.81-14.07,11.73-21.1,17.6a18.47,18.47,0,0,0-4.35,6c-5.49,10.66-11.27,21.18-16.38,32-3.33,7.08-.54,14.77,3.65,19.64,8.59,10,9.78,21.37,10,33.4,0,1.92.61,3.95-.76,6.25-2.93-3.35-3.69-7.53-5.57-11.08-1.33-2.51-2.31-2.65-4.41-.78-5.81,5.17-5.7,4.87-11.84.09-7-5.44-12.87-11.53-14.8-20.53a5.81,5.81,0,0,0-4.73-4.61c-10.4-2.42-16-9.72-20.2-18.87-2.64-5.73-6.06-11.1-9-16.69-1.37-2.56-2.57-3.59-5.1-1-9.41,9.67-19,19.17-28.47,28.8-3.48,3.53-3.71,8.49-4.94,12.89a27.66,27.66,0,0,1-9.71,15.13,176.32,176.32,0,0,0-16,15c-2.86,2.89-6,3.77-9.91,3.63s-8,.19-12,0c-3.63-.16-3.82,1.09-2.48,4.06,3.88,8.65,7.55,17.41,11.28,26.13.64,1.49,1.55,2.93,1.23,5.6-7.14-4.61-14.82-7.48-18.72-15.27-2.21-4.41-4.59-8.41-10.61-8-2.78.16-4.29-1.72-4.92-4.63-1-4.87-2.2-9.73-4.75-14.14-1-1.78-2.18-2.94-4.33-2.54-4.09.75-8.59.69-12.17,2.48-10.66,5.31-20.95,11.36-31.89,17.4,4.83,3.12,9,5.76,13.12,8.51,1.23.82,2.92,1.76,3.25,3A64.09,64.09,0,0,0,619,589.5c2.35,3.39-2.82,1.75-3.88,4.1,4.2,4,8.5,8.16,12.78,12.32.69.67,1.8,1.41,1.36,2.46-.59,1.43-2,.7-3.06.61-8.78-.74-15.36-6-22-11-2.9-2.16-4.5-2.41-6.24,1.41-3,6.5-3.23,6.38-7.53.47-.76-1-1.56-2.07-3.09-4.1,0,7.89,0,14.64,0,21.38,0,2.61-.64,3.93-3.5,2.26-2-1.14-3.63-3.9-5.86-3.25s-2.05,3.94-3.3,5.87c-.53.82-.83,1.82-2,2.06a7.25,7.25,0,0,1-1.65-5.07c-.24-10.07-4.65-18.24-11.32-25.33-2.61-2.77-2.38-5-.31-7.83,3.81-5.26,4.76-11.66,6.45-17.72,1.06-3.79-2.72-3.51-4.59-4.66-3.75-2.32-6.48-2-6.66,3.23-.14,4.2-2.2,6-6.38,5.53-3.57-.45-5.28,1-5.11,4.73.11,2.52-1.26,3.4-3.48,2-2.72-1.78-3.25-.66-3.53,2-.48,4.69-1,4.63-5,2s-6-6.53-7.14-11c-1.52-5.91-4.54-10.46-10.18-13.36-6-3.09-9.2-9-13-14.24-1.61-2.21-1.06-4.88-.5-7.27,1.71-7.31.39-13-7.18-16.3-3.45-1.53-6.57-3.83-7.18-8.27-.42-3.06-2.5-1.68-4.18-1.08-10.64,3.8-18.87,10.68-26.25,19.13-8.77,10-17.24,20.3-25.25,30.95-3.89,5.16-9.8,7.37-15,10.49-10.59,6.31-21.35,12.32-32,18.49-5.42,3.14-11.4,2.66-18.47,3.44,3.16-3.21,6.24-2.89,8.89-3.1a21.41,21.41,0,0,0,9.81-3.2c13.07-8,26.24-15.84,39.29-23.87,5.39-3.31,8.24-9.06,12.23-13.71,9.42-11,18.34-22.45,28-33.23,5.54-6.18,13.86-8.34,21.17-11.83,1.93-.92,3.69,1.13,5.28,2.27,8.27,5.89,16.84,11.29,25.47,16.66s17.68,6.59,27.13,6.55c6.53,0,11.89,1.47,16.79,5.92,7.92,7.18,17,12.79,26.43,17.82,3.72,2,6.72,2.6,10.58.26,7.68-4.66,15.65-8.84,23.51-13.22a55.72,55.72,0,0,1,7.68-3.55c8.42-3.15,16.45-2.87,24.37,1.63,10.82,6.15,22.5,6.24,34.42,4.54a8.85,8.85,0,0,0,5.29-2.43q10.2-9.93,20.49-19.79a9,9,0,0,0,2.92-5.12c1.74-11.52,7.56-20.59,15.9-28.53,6.74-6.43,12.94-13.44,19.2-20.35,2.42-2.68,4.6-3.36,7.7-1.18,15.15,10.64,32.78,15.15,50.18,20.27,3.06.9,4.17-.33,5.33-2.69,4.27-8.67,9.09-17.09,12.85-26,3.64-8.61,9.64-14.95,16.51-20.86,8.2-7.06,16.19-14.37,24.3-21.54,11.13-9.85,18.24-22.86,27.16-34.44,6.6-8.57,6.41-8.67,14.15-1.38,14.79,13.93,29.67,27.77,44.41,41.76,3.81,3.61,5.78,8.58,8,13.17,6.26,13,14.47,24,26.92,31.82,7.43,4.68,14.13,10.55,21,16.09,3.38,2.73,6.14,3.07,9.55,0s7.23-5.35,10.73-8.16c2-1.63,3.72-1.51,5.85-.19,15.71,9.73,31.7,19.06,47.14,29.21,7,4.57,11.22,12.19,16.42,18.66,13.16,16.36,27.47,31.71,41.22,47.56,1.27,1.47,3,2.07,4.66,2.76,9.87,4,19.91,7.69,29.55,12.2,5.2,2.43,10.08,1.25,15.12.81,5.8-.5,11.58-1.25,17.35-2a12.33,12.33,0,0,0,6.09-2c18.28-13.9,37.75-26.32,54.27-42.42,10.15-9.88,18.07-21.76,27.22-32.55,8-9.4,5.51-9.31,14.84-1.64,8.23,6.77,16.43,13.57,24.85,20.11,6,4.7,10.23,10.93,14.75,16.86,10.8,14.17,24.25,25.58,37.66,37.06,1.26,1.09,2.67,2,3.82,3.21a49.15,49.15,0,0,0,26.19,14.38,54.78,54.78,0,0,1,17.33,6.23c12.7,7.58,26.82,9.36,41.07,10.94,8.6,1,17.15,2.27,25.74,3.21,7.8.87,13.76,5.65,20.31,9.14,8.87,4.72,17.63,9.67,26.44,14.53-.19.4-.38.8-.56,1.2-9.13-3.36-18.46-6.26-27.34-10.2-10.46-4.63-21.36-5.72-32.53-6.36-12.62-.71-25.22-1.75-37.8-3-5.19-.5-9.81-3.22-14.31-5.67-15.39-8.38-32.13-11.52-49.27-13.09-3.38-.31-5-1.91-6.3-4.67-3.14-6.62-6.53-13.12-9.64-19.76a11.45,11.45,0,0,0-6.13-6.16c-3.68-1.55-7.2-3.47-10.85-5.09-6-2.66-11.72-5.49-15.71-11a21.84,21.84,0,0,0-15.8-9.34c-4.2-.48-6.17-2.7-7.33-6.82-3.14-11.21-6.78-22.29-10.3-33.39-.33-1-.2-2.66-1.57-2.91-1.6-.3-2.08,1.36-2.89,2.34-6.75,8.24-13.59,16.42-20.22,24.76-9.79,12.3-22.66,21-35,30.4-7.28,5.56-15,10.62-21.9,16.59-6.66,5.75-14.14,8.14-22.66,9-10.4,1-20.81,2.26-30.33,7.4-3.18,1.72-5.06,3.43-4.54,7.24.38,2.79.06,5.71.65,8.44.86,4-.45,6-4.42,6.63-2,.29-3.9.89-5.87,1.16-2.23.3-3.35,1.49-3.17,3.67.59,7.16-1.86,13.8-3.5,20.56a14.12,14.12,0,0,0,.61,9.23c5.55,13.23,10.61,26.6,11.39,41.14.08,1.42,1.11,3.24-.53,4.07-1.39.7-2.18-1.12-3.19-1.88-.27-.2-.46-.5-.72-.7-9.8-7.38-14.83-17.31-17-29.32-1.75-9.78-4.78-19.34-7.61-29-.78,4.82-.61,9.7-1.33,14.52-.59,3.87-1.89,3.59-4.38,1.78-3.9-2.85-7.81-5.68-11.79-8.42a6.24,6.24,0,0,1-2.74-5.5c-.58-17-1.33-33.92-1.89-50.89a15.8,15.8,0,0,0-2.08-8c-2.93-4.85-5.3-10-8.44-14.74-5.09-7.63-7.7-15.76-6.46-24.94.67-4.93-1-6.94-6.29-6.55-6,.45-12,0-18,.15-3.14.09-5.12-.91-5.79-4.09-4-19-15.81-33.89-25.88-49.71-1.94-3.05-3.49-3.93-6.52-1.16-4.28,3.93-10.59,6.62-13,11.37-2.29,4.6,1,10.9,1.82,16.46,1.36,9.21,2.84,18.4,4.17,27.62a12.62,12.62,0,0,0,3.15,6.67c9.82,11.22,11.2,25.67,15.08,39.16.8,2.79-1,3.7-3,4.17-4.52,1-5.77,3.39-4.61,8,.73,2.89,2.06,6,.72,9.6-4.8-2.45-7.42-7.18-12.69-10.85C1022.45,599.08,1024.63,606.5,1027,614.39Z" transform="translate(-364.6 -374.64)"/><path d="M794.64,639a52.11,52.11,0,0,0,31-9.29c5.49-3.79,11.53-6.63,17.53-9.51,9.81-4.71,18.08-11,23.2-21,3.75-7.27,10.79-9.5,18.14-10.48,5.58-.75,11.28-.61,16.92-.82,1,0,2.14-.13,2.72.84.81,1.35-.4,2.17-1.16,2.94-6.3,6.3-11.71,13.77-21.24,15.78-1.8.38-3.19,1.68-4.57,2.93-10.35,9.42-20.2,19.31-28.76,30.41a10.23,10.23,0,0,1-6,4c-8,1.85-15.78,3.55-24.08,1.5-12.27-3-24.47.12-36.64,1.43a146.46,146.46,0,0,1-14.95.38c-1.84,0-3.43-.77-3.78-2.61-.48-2.48,1.82-2.41,3.27-2.79C774.88,640.51,783.53,638,794.64,639Z" transform="translate(-364.6 -374.64)"/><path d="M876.94,540.14c-16.3,2-22.87,16.26-32.35,26.88-3.66-6.16-2.6-11.89,2.93-15.57a4.79,4.79,0,0,0,2.27-4.62,32.8,32.8,0,0,1,.65-8.42c.89-3.94,1.78-7.16,7-5.9,2.51.6,3.33-1.67,4.13-3.52,1.32-3,2-6.59,4.6-8.75,4.31-3.58,8.17-5.57,15.07-3.64,8.62,2.4,16.61,5.12,24.06,10,1.84,1.2,4.44,1.25,6.7,1.78s2.91,1.55,1.09,3.34c-3.07,3-5.77,6.46-10.22,7.76-5.11,1.48-8.8,4.55-10,10-1.09,4.72-4.87,5.46-8.8,5.73a18.19,18.19,0,0,0-9.37,3c-1.67,1.13-3.74,4.34-5.65,1.67s-3.63-6.24-.21-9.47c3.11-2.94,6.18-5.93,9.27-8.89Z" transform="translate(-364.6 -374.64)"/><path d="M842.72,476.3c.8-3,3.92-5.86,7.64-8.09,6.13-3.67,12.24-7.2,16.75-13,2.14-2.78,3.78-5.46,3.57-9-.29-4.71,1.89-7.43,6.3-8.85a98,98,0,0,0,9.22-3.78c3.52-1.54,6.51.06,9.41,1.64,2.15,1.16,1.71,3,.36,4.61-1.48,1.8-2.76,3.89-4.57,5.26-7.18,5.45-10.21,13.34-12.81,21.43-1.36,4.24-3.44,7.55-7.87,8.83-7.69,2.24-11.55,8.56-15.64,14.6-2,2.9-3.33,3.3-6,.43C845.7,486.71,842.83,483.08,842.72,476.3Z" transform="translate(-364.6 -374.64)"/><path d="M960.31,634.14c-3.47.37-5.4-.93-7.29-2.35-3.87-2.89-7.95-5.54-11.54-8.74-3-2.71-5.18-2.24-7.38.7-3.37,4.52-7.76,6.1-13.45,5.72-7.13-.48-11.37-4.27-10.34-11.44s3-14.31,2.76-21.72c-.08-2.47,1.48-3.24,3.69-2.11,6.42,3.25,13.4,5,20.14,7.4,1.85.66,3.49,1.56,3.76,3.57.65,4.89,4.34,7.23,7.78,9.83,5.31,4,10.85,7.79,13.68,14.21.59,1.33,2.11,2.54,1.34,4S960.79,634.06,960.31,634.14Z" transform="translate(-364.6 -374.64)"/><path d="M1382.89,610c6.65,1.57,12.46,4.76,18.37,7.51,4.46,2.07,8.76,2.88,13.49,1.61,4.42-1.2,8.16-.64,11.73,2.86,6.13,6,12.16,12.35,21.31,14,3.16.58,2.51,3.32,2,5.7-.61,2.68-2.18,2.89-4.46,2.19q-6-1.81-12-3.41c-4.83-1.28-5.64-.54-6,4.6-.29,3.8,1.49,7.12,2.1,10.7.16,1,.36,1.88.58,3-2.25.19-2.73-1.55-3.38-2.61a49.53,49.53,0,0,0-19.18-18.38c-2.05-1.09-4.06-2.42-5-4.71-3.36-8.21-10.33-13.25-16.52-19C1384.72,613.09,1383,612.49,1382.89,610Z" transform="translate(-364.6 -374.64)"/><path d="M756.08,635.11c-4.41-.59-9.39.57-14.31,2.34-2.17.78-4.56,2-6.68,1.73-8.69-1.09-15.93,2.2-22.92,6.62-3.45,2.18-4.49.66-4.16-2.8s1.44-6,4.93-7.89a146.24,146.24,0,0,1,22.84-9.91c5.89-2,11.9-1,17.79-2.08a76.59,76.59,0,0,0,12.53-3.24c3-1.06,5.94-2.28,9.19-2,3.82.29,7.21-.47,10.16-3.14,2.51-2.27,3.77-1.3,3.85,1.88a10,10,0,0,1-1.51,5.62c-5.85,10-15.18,12.74-25.85,12.91C760.27,635.13,758.61,635.11,756.08,635.11Z" transform="translate(-364.6 -374.64)"/><path d="M1116.16,701.53c-9.88-3.78-16.65-10.51-23.94-16.49a57.08,57.08,0,0,1-9.54-10.16c-6.85-9.24-14.11-18.15-22.56-26-3.69-3.41-6.18-7.21-6.76-12.33-.54-4.78-2.44-8.93-6.87-11.56-2.66-1.57-3.12-3.82-1-6.18,2-2.15,1.52-4.12.08-6.29-.81-1.22-1.8-2.55-1.39-4.13s.58-4.25,2.42-4.63c2-.42,2.08,2.19,2.73,3.56,4.21,8.87,8.39,17.75,12.4,26.71a14.81,14.81,0,0,0,6.94,7.52,33.34,33.34,0,0,1,7.92,6c4.21,4.08,7.25,8.24,4.88,14.45a3.34,3.34,0,0,0,.61,3.33c4.25,5,7.4,11.15,13.93,13.93,2.6,1.11,5.09,2.48,7.58,3.82C1110.71,686.86,1114.5,692.94,1116.16,701.53Z" transform="translate(-364.6 -374.64)"/><path d="M1250.13,627.39c1-6,4.92-9.25,5.71-13.91a132.6,132.6,0,0,0,1.85-23.79c-.09-8.57,3.65-13.06,12-14,7.48-.81,12.35-5.09,16.21-10.93,3.66-5.55,7.1-11.23,10.68-16.83a7.64,7.64,0,0,1,1.41-1.31c1.9.74,1.37,2.3,1.18,3.43-1.49,9-4.13,17.45-12.11,23.12a19.61,19.61,0,0,0-7.26,10.36c-4,12-8.65,23.72-16.28,34C1260.21,622,1255.44,624,1250.13,627.39Z" transform="translate(-364.6 -374.64)"/><path d="M809.55,559.91c.51,1.94-1,2.71-2.2,3.48-9.86,6.31-19.09,12.66-32,13.59a77.42,77.42,0,0,0-35.26,11.63c-4.25,2.67-7.1.38-9.76-1.91-2.08-1.8.69-2.33,1.74-2.88,7.06-3.68,14.81-5.06,22.58-5.91,5.47-.59,9.82-2.51,13.28-6.79a14.34,14.34,0,0,1,9.12-5.64c3-.46,5.23-2,5.68-5.39.26-1.87,1.45-3.51,3.38-2.3,6.46,4.05,12.14,1,17.85-1.62C808.16,554.25,808.88,556.91,809.55,559.91Z" transform="translate(-364.6 -374.64)"/><path d="M748.37,521.48c-2.82,7.72-5.59,14.63-15.17,15.74,5.13-10.45-.79-22.24,6-32.58,3.88-5.88,9.58-8,15-10.89,2.06-1.11,3.28,1.63,3,3.41a46.32,46.32,0,0,0,1.63,21.1c.73,2.52-1.31,5.47-2.93,7.74S751.63,526.88,748.37,521.48Z" transform="translate(-364.6 -374.64)"/><path d="M1365.22,604.32c-7.2.34-11.93-5.53-16.87-10.53-5.66-5.75-9.66-13.15-17.7-16.44-2.2-.91-3.91-9.72-2.43-11.48,1.94-2.29,4.66-3,7-.79,6.79,6.28,15,10.34,22.69,15.31a8.25,8.25,0,0,1,3.49,4.68c1.72,5.56,3.51,11.09,6.41,16.21C1368.69,602.8,1369.89,605,1365.22,604.32Z" transform="translate(-364.6 -374.64)"/><path d="M915.62,516.41c-5.26-.87-9.34-3.14-13.59-4.81-3-1.19-5.9-2.14-9.15-1.28-4,1.05-5.15-1.28-5.13-4.55a12.81,12.81,0,0,1,3.85-9.41c1.48-1.46,2-2.94-1-3s-3-1.93-2.38-4.13a17.68,17.68,0,0,1,2.68-5.85A111.59,111.59,0,0,0,902.61,462a10.2,10.2,0,0,1,1.12-2.21c.88-1.19,1.84-2.93,3.34-2.67,2,.35,1.1,2.44,1.22,3.79a17.24,17.24,0,0,1-2.56,11.37c-6,9.24-5.47,19.15-2.38,29.2a4.32,4.32,0,0,0,2.26,3.07C912,507.48,912.22,507.78,915.62,516.41Z" transform="translate(-364.6 -374.64)"/><path d="M452.37,619.65c-1.12,2.63-2.46,5.37-4.93,7.16-5.52,4-11.21,7.76-16.77,11.69-2.09,1.47-3.73,1.69-4.3-1.25-1-5.22-4.42-8.78-8.1-12.21-2.11-2-3.15-3.91,1-4.51,7-1,12.2-4.93,16.49-10.23,2.18-2.69,4.2-2.55,6.63-.3s5.13,4.23,7.68,6.36C451.05,617.2,452.18,618,452.37,619.65Z" transform="translate(-364.6 -374.64)"/><path d="M542.75,620c-5.92,2.29-10.92,4.25-16,6.13-1.24.47-2.6.59-3.86,1-12.72,4.27-25.52,5.58-38.52,1.15-3.85-1.32-7.91-.82-11.89-1-1.39,0-2.78-.28-3.24-1.79-.52-1.71,1.13-2.09,2-3,3.49-3.37,7.25-4.77,12.34-3.86,17.68,3.15,35.44,1.88,53.18.2a22.59,22.59,0,0,1,3.49,0A11.49,11.49,0,0,1,542.75,620Z" transform="translate(-364.6 -374.64)"/><path d="M1299.5,582.1c-3.25,9.4-2.37,20.66-8.33,30.12a7,7,0,0,1-9.88,2.08c-2.19-1.38-3-3-1.38-5.35a28.63,28.63,0,0,0,4-9.55c.33-1.27.73-2.92,2.07-3.23,5.1-1.14,5.18-4.86,4.81-8.82-.29-3.1,1.22-5.42,3.06-7.6,1.24-1.47,2.15-4.32,4.08-3.8C1300.22,576.54,1298.8,579.41,1299.5,582.1Z" transform="translate(-364.6 -374.64)"/><path d="M1333.73,585.93c5.52,7,10.3,13.53,16.55,18.85,3.25,2.78-.4,11.62-4.78,12.79a2.35,2.35,0,0,1-2.25-.59C1337.59,612.75,1331.5,594.12,1333.73,585.93Z" transform="translate(-364.6 -374.64)"/><path d="M1289.87,536.42c-1.41,6.38-2.95,11.75-7,16.05-2.63,2.81-4.12,6-3.56,10,.75,5.36-3.38,6.09-6.9,6.48s-6.36-2.61-6.89-5.41a5.66,5.66,0,0,1,5.42-6.93c3.48-.3,5.16-2.62,6.31-5.59C1279.63,545,1283,539.77,1289.87,536.42Z" transform="translate(-364.6 -374.64)"/><path d="M442.75,590.21c-1.8-.43-5.24,1.33-6.29-1.39-1.13-2.93,1.76-5.19,3.86-6.94,4.19-3.52,8.42-7,14.62-6.22,2.86.36,4.09,1.06,2.83,4C454.64,586.87,452.69,591.17,442.75,590.21Z" transform="translate(-364.6 -374.64)"/><path d="M412.6,604.26c-.81-.17-1.64-.28-2.42-.51-2.34-.69-5.95,0-6.7-2.35-.93-2.91,2.08-5.32,3.53-7.87a2.25,2.25,0,0,1,3-1.15c4.58,2.08,8.31-.27,12.16-2.17,1.77-.87,3.6-2,5.47-.17,1.05,1,2.66,1.86,2.61,3.46-.06,2-2.12,2-3.41,2.31a20.29,20.29,0,0,0-9.94,6.26C415.77,603.3,414.55,604.53,412.6,604.26Z" transform="translate(-364.6 -374.64)"/><path d="M484.27,566.52c-4.44-2.26-9.56-2.22-14.72-2.24-1.86,0-5.1,1.19-5.05-2.13,0-3-.95-7,3.19-8.61,3.53-1.35,6.9-3.12,9.06,2.57,1.36,3.58,6.15,3.34,9.37,4.87,1.3.62,3.94.42,3.24,2.83C488.78,565.77,487,566.87,484.27,566.52Z" transform="translate(-364.6 -374.64)"/><path d="M1050.52,576.76c.77,11.08,9.83,12.35,17.3,15.46,2.38,1,4.78,1.95,8.49,3.47-7.36,2.38-13.58,4.87-19.29,1C1049,591.19,1047.34,585.58,1050.52,576.76Z" transform="translate(-364.6 -374.64)"/><path d="M476.33,535.38c-.09,8.6-9,14.16-15.95,10.47-1.72-.92-2.23-1.76-.76-3.34a40.57,40.57,0,0,1,14.3-9.72C477.67,531.21,475.62,534.72,476.33,535.38Z" transform="translate(-364.6 -374.64)"/><path d="M675,583.41c7.93,3.7,14.59,6.76,21.79,8.56,3.66.91,1,4.14.65,6.3-.29,1.69-1.11,3.52-3.33,2.22C687.09,596.37,680,592.2,675,583.41Z" transform="translate(-364.6 -374.64)"/><path d="M458.85,634.32c0-1.17-.07-2.34,0-3.5.17-2.54,1.48-2.79,3.29-1.41,2.91,2.21,5.82,4.44,8.59,6.82,1.06.91,2.68,2,1.81,3.71a5.31,5.31,0,0,1-4.65,3.26C460.9,643.5,458.77,641.46,458.85,634.32Z" transform="translate(-364.6 -374.64)"/><path d="M868.49,497.67c2.64-.6,3.94.38,3.86,3.33-.07,2.67-.06,5.22-3.72,5.11-4.07-.11-7.77.16-10.93,3.51-2,2.14-3.54-.55-4.72-1.94-1.6-1.87,0-2.65,1.52-3.12a14.6,14.6,0,0,0,6.56-4.37C863,498,865.65,497.67,868.49,497.67Z" transform="translate(-364.6 -374.64)"/><path d="M1469.52,650.07c-2.55-.94-6.27-2.24-9.93-3.67a2,2,0,0,1-1.08-3.22c1.21-1.74,2.61-3.76,5.17-2.81a19.24,19.24,0,0,0,7.7,1.42c3.44-.17,4,1.89,4,4.77C1475.31,649.84,1473.39,650.35,1469.52,650.07Z" transform="translate(-364.6 -374.64)"/><path d="M684.57,618.92c3.86.4,7,.68,10.09,1.07,1.7.21,2.49,1.26,2.65,3,.29,3.27-1.62,5.26-3.9,7-1.46,1.11-2.48-.15-3.37-1.07-2.18-2.26-4.31-4.58-6.4-6.92-.65-.72-1.38-1.73-.63-2.62C683.44,618.89,684.51,618.94,684.57,618.92Z" transform="translate(-364.6 -374.64)"/><path d="M1042.91,556.06c.84-1.91-.68-5.56,2.45-7.14,1.53-.77,7.93,6.24,7.7,8.28-.39,3.35-1.81,5.5-5.81,5.16C1043.52,562,1042.27,560.21,1042.91,556.06Z" transform="translate(-364.6 -374.64)"/><path d="M456.65,564.65c-2.56-.85-6.34.12-5.77-3.51.47-3,0-7.66,4.8-7.9,1.89-.1,6-.52,5.21,3.37C460.32,559.49,461.19,563.91,456.65,564.65Z" transform="translate(-364.6 -374.64)"/><path d="M742.55,547.32c-2.19-.36-5.85.46-5.16-3.31.53-3,1.6-7,5.91-6.7,2,.12,5.73-.21,5,3.81C747.69,544.17,747.87,548.34,742.55,547.32Z" transform="translate(-364.6 -374.64)"/></svg>